<svg width="275" height="48" viewBox="0 0 275 48" fill="none" xmlns="http://www.w3.org/2000/svg">
<g clip-path="url(#clip0_4104_68507)">
<path d="M21.9375 9.77641V9.87443C21.9669 11.0065 22.903 11.8936 24.0645 11.8936C25.2064 11.8642 26.1131 10.9085 26.0837 9.7666C26.069 9.21279 25.8338 8.69819 25.427 8.31102C25.0202 7.92874 24.5007 7.7278 23.9518 7.7474C22.854 7.77681 21.9669 8.66879 21.9375 9.77641Z" fill="#25425D"/>
<path d="M47.4367 23.3275C47.2602 16.9317 44.6186 11.0064 40.0019 6.64456C35.4685 2.36111 29.5628 0.101767 23.4023 0.288004C23.3484 0.288004 23.2945 0.288004 23.2406 0.288004C17.134 0.288004 11.1842 2.83161 6.88604 7.28169C2.48497 11.6632 -0.024327 17.7551 0.000177816 24.0038C0.00997976 37.0796 10.4981 47.7196 23.3729 47.7196C23.5983 47.7245 23.8189 47.7294 24.0443 47.7294C24.2698 47.7294 24.4903 47.7294 24.7158 47.7196C30.9645 47.5432 36.7722 44.9064 41.0654 40.2946C45.3538 35.6877 47.618 29.6644 47.4367 23.3275ZM3.42596 24.0038C3.42596 20.9309 4.1317 17.8629 5.47456 15.1085L22.0104 39.6575V44.2252C11.5763 43.3528 3.42596 34.5017 3.42596 23.9989V24.0038ZM44.0207 24.0038C44.0207 34.5017 35.8704 43.3577 25.4362 44.2301V39.7506L42.0015 15.1624C43.3248 17.8972 44.0256 20.9505 44.0256 24.0038H44.0207ZM40.0411 11.9327L23.7503 36.1141L7.43495 11.8886C11.2577 6.76219 17.3398 3.70398 23.7258 3.70398C30.1117 3.70398 36.2281 6.77689 40.046 11.9327H40.0411Z" fill="#25425D"/>
<path d="M81.2696 22.2609H68.5614V10.082H64.6406V37.9244H68.5614V25.6867H81.2696V37.9244H85.1904V10.082H81.2696V22.2609Z" fill="#25425D"/>
<path d="M110.949 10.082H108.008L97.6673 37.7235L97.5938 37.9244H101.858L103.911 32.0531H115.125L117.178 37.9244H121.334L110.988 10.1801L110.954 10.082H110.949ZM113.742 28.4166H105.205L109.493 16.3014L113.742 28.4166Z" fill="#25425D"/>
<path d="M141.739 10.082H133.75V37.9244H137.671V25.7455H141.739C147.326 25.7455 150.8 22.7657 150.8 17.9677C150.8 13.1696 147.242 10.082 141.739 10.082ZM146.939 17.9677C146.939 21.4523 144.111 22.1874 141.739 22.1874L137.671 22.2119V13.6891H141.739C144.111 13.6891 146.939 14.4292 146.939 17.9677Z" fill="#25425D"/>
<path d="M172.489 10.082H164.5V37.9244H168.391V25.7455H172.489C178.076 25.7455 181.55 22.7657 181.55 17.9677C181.55 13.1696 177.992 10.082 172.489 10.082ZM177.674 17.9677C177.674 21.4523 174.846 22.1874 172.474 22.1874L168.377 22.2119V13.6891H172.474C174.846 13.6891 177.674 14.4292 177.674 17.9677Z" fill="#25425D"/>
<path d="M203.884 23.0127L196.184 10.1673L196.14 10.0938H191.562L201.977 27.0413V37.9215H205.839V27.0658L216.239 10.0938H211.661L203.884 23.0127Z" fill="#25425D"/>
<path d="M257.522 10.146L249.523 32.2297L241.584 10.1215L241.549 10.0234H237.438L247.921 37.8904L247.96 37.9835H251.141L261.477 10.3469L261.555 10.146H257.522Z" fill="#25425D"/>
<path d="M271.084 10.0195C269.251 10.0195 267.766 11.5094 267.766 13.3375C267.766 15.1655 269.256 16.6554 271.084 16.6554C272.912 16.6554 274.402 15.1655 274.402 13.3375C274.402 11.5094 272.912 10.0195 271.084 10.0195ZM271.084 16.1948C269.51 16.1948 268.231 14.9156 268.231 13.3424C268.231 11.7692 269.51 10.49 271.084 10.49C272.657 10.49 273.936 11.7692 273.936 13.3424C273.936 14.9156 272.657 16.1948 271.084 16.1948Z" fill="#25425D"/>
<path d="M272.028 13.4286C272.185 13.2718 272.263 13.0561 272.263 12.7866C272.263 12.5954 272.224 12.4337 272.146 12.2965C272.067 12.1593 271.95 12.0563 271.793 11.9828C271.636 11.9093 271.43 11.875 271.18 11.875H270.023V14.8205H270.435V13.7129H271.185C271.185 13.7129 271.205 13.7129 271.214 13.7129L271.851 14.8205H272.322L271.631 13.6541C271.793 13.605 271.93 13.5364 272.028 13.4335V13.4286ZM271.136 13.3453H270.435V12.2377H271.136C271.278 12.2377 271.401 12.2573 271.508 12.2916C271.616 12.3259 271.7 12.3847 271.758 12.4631C271.817 12.5415 271.851 12.6494 271.851 12.7866C271.851 12.9238 271.822 13.0267 271.758 13.11C271.7 13.1934 271.616 13.2522 271.508 13.2865C271.401 13.3257 271.278 13.3404 271.136 13.3404V13.3453Z" fill="#25425D"/>
</g>
<defs>
<clipPath id="clip0_4104_68507">
<rect width="274.405" height="47.4463" fill="white" transform="translate(0 0.277344)"/>
</clipPath>
</defs>
</svg>
